<svg width="60" height="60" viewBox="0 0 60 60" fill="none" xmlns="http://www.w3.org/2000/svg">
<g clip-path="url(#clip0_4408_1891)">
<path d="M17.4996 24.9999H24.9996V17.4999L16.2496 8.74988C19.0487 7.41306 22.1934 6.97689 25.2506 7.50143C28.3079 8.02598 31.1273 9.48542 33.3207 11.6788C35.5141 13.8722 36.9735 16.6916 37.4981 19.7489C38.0226 22.8061 37.5865 25.9508 36.2496 28.7499L51.2496 43.7499C52.2442 44.7444 52.8029 46.0934 52.8029 47.4999C52.8029 48.9064 52.2442 50.2553 51.2496 51.2499C50.2551 52.2444 48.9062 52.8032 47.4996 52.8032C46.0931 52.8032 44.7442 52.2444 43.7496 51.2499L28.7496 36.2499C25.9506 37.5867 22.8059 38.0229 19.7486 37.4983C16.6914 36.9738 13.872 35.5143 11.6786 33.3209C9.48518 31.1276 8.02573 28.3081 7.50119 25.2509C6.97665 22.1936 7.41282 19.049 8.74964 16.2499L17.4996 24.9999Z" stroke="#D8C5A4" stroke-width="2.2" stroke-linecap="round" stroke-linejoin="round"/>
</g>
<defs>
<clipPath id="clip0_4408_1891">
<rect width="60" height="60" fill="white"/>
</clipPath>
</defs>
</svg>
