<svg width="60" height="60" viewBox="0 0 60 60" fill="none" xmlns="http://www.w3.org/2000/svg">
<g clip-path="url(#clip0_4408_1908)">
<path d="M32.5 52.5H15C13.6739 52.5 12.4021 51.9732 11.4645 51.0355C10.5268 50.0979 10 48.8261 10 47.5V17.5C10 16.1739 10.5268 14.9021 11.4645 13.9645C12.4021 13.0268 13.6739 12.5 15 12.5H45C46.3261 12.5 47.5979 13.0268 48.5355 13.9645C49.4732 14.9021 50 16.1739 50 17.5V25" stroke="#D8C5A4" stroke-width="2.2" stroke-linecap="round" stroke-linejoin="round"/>
<path d="M40 7.5V17.5" stroke="#D8C5A4" stroke-width="2.2" stroke-linecap="round" stroke-linejoin="round"/>
<path d="M20 7.5V17.5" stroke="#D8C5A4" stroke-width="2.2" stroke-linecap="round" stroke-linejoin="round"/>
<path d="M10 27.5H41.25" stroke="#D8C5A4" stroke-width="2.2" stroke-linecap="round" stroke-linejoin="round"/>
<path d="M52.5 37.5H46.25C45.2554 37.5 44.3016 37.8951 43.5984 38.5983C42.8951 39.3016 42.5 40.2554 42.5 41.25C42.5 42.2446 42.8951 43.1984 43.5984 43.9016C44.3016 44.6049 45.2554 45 46.25 45H48.75C49.7446 45 50.6984 45.3951 51.4016 46.0984C52.1049 46.8016 52.5 47.7554 52.5 48.75C52.5 49.7446 52.1049 50.6984 51.4016 51.4016C50.6984 52.1049 49.7446 52.5 48.75 52.5H42.5" stroke="#D8C5A4" stroke-width="2.2" stroke-linecap="round" stroke-linejoin="round"/>
<path d="M47.5 52.5V55M47.5 35V37.5" stroke="#D8C5A4" stroke-width="2.2" stroke-linecap="round" stroke-linejoin="round"/>
</g>
<defs>
<clipPath id="clip0_4408_1908">
<rect width="60" height="60" fill="white"/>
</clipPath>
</defs>
</svg>
