<svg width="26" height="26" viewBox="0 0 26 26" fill="none" xmlns="http://www.w3.org/2000/svg">
<g clip-path="url(#clip0_4322_1574)">
<path d="M9.75 11.9167C9.75 12.7786 10.0924 13.6053 10.7019 14.2148C11.3114 14.8242 12.138 15.1667 13 15.1667C13.862 15.1667 14.6886 14.8242 15.2981 14.2148C15.9076 13.6053 16.25 12.7786 16.25 11.9167C16.25 11.0547 15.9076 10.2281 15.2981 9.61856C14.6886 9.00907 13.862 8.66666 13 8.66666C12.138 8.66666 11.3114 9.00907 10.7019 9.61856C10.0924 10.2281 9.75 11.0547 9.75 11.9167Z" stroke="#D8C5A4" stroke-width="1.5" stroke-linecap="round" stroke-linejoin="round"/>
<path d="M19.131 18.0451L14.5344 22.6417C14.1282 23.0475 13.5774 23.2755 13.0031 23.2755C12.4289 23.2755 11.8781 23.0475 11.4719 22.6417L6.87419 18.0451C5.66218 16.833 4.83681 15.2887 4.50244 13.6076C4.16807 11.9264 4.33972 10.1839 4.99569 8.60028C5.65167 7.01668 6.7625 5.66316 8.18771 4.71087C9.61293 3.75858 11.2885 3.25031 13.0026 3.25031C14.7167 3.25031 16.3923 3.75858 17.8175 4.71087C19.2427 5.66316 20.3535 7.01668 21.0095 8.60028C21.6655 10.1839 21.8371 11.9264 21.5028 13.6076C21.1684 15.2887 20.343 16.833 19.131 18.0451Z" stroke="#D8C5A4" stroke-width="1.5" stroke-linecap="round" stroke-linejoin="round"/>
</g>
<defs>
<clipPath id="clip0_4322_1574">
<rect width="26" height="26" fill="white"/>
</clipPath>
</defs>
</svg>
