<svg width="26" height="26" viewBox="0 0 26 26" fill="none" xmlns="http://www.w3.org/2000/svg">
<g clip-path="url(#clip0_4322_1555)">
<path d="M3.25 7.58332C3.25 7.00869 3.47827 6.45759 3.8846 6.05126C4.29093 5.64493 4.84203 5.41666 5.41667 5.41666H20.5833C21.158 5.41666 21.7091 5.64493 22.1154 6.05126C22.5217 6.45759 22.75 7.00869 22.75 7.58332V18.4167C22.75 18.9913 22.5217 19.5424 22.1154 19.9487C21.7091 20.3551 21.158 20.5833 20.5833 20.5833H5.41667C4.84203 20.5833 4.29093 20.3551 3.8846 19.9487C3.47827 19.5424 3.25 18.9913 3.25 18.4167V7.58332Z" stroke="#D8C5A4" stroke-width="1.5" stroke-linecap="round" stroke-linejoin="round"/>
<path d="M3.25 7.58334L13 14.0833L22.75 7.58334" stroke="#D8C5A4" stroke-width="1.5" stroke-linecap="round" stroke-linejoin="round"/>
</g>
<defs>
<clipPath id="clip0_4322_1555">
<rect width="26" height="26" fill="white"/>
</clipPath>
</defs>
</svg>
