<svg viewBox="0 0 101 60" xmlns="http://www.w3.org/2000/svg" xmlns:xlink="http://www.w3.org/1999/xlink" width="101.000000" height="60.000000" fill="none" customFrame="#000000">
	<defs>
		<clipPath id="clipPath_0">
			<rect width="39.000000" height="42.000000" x="31.000000" y="0.000000" fill="rgb(255,255,255)" />
		</clipPath>
	</defs>
	<rect id="Logo" width="101.000000" height="60.000000" x="0.000000" y="0.000000" />
	<path id="Greenwood" d="M6.11719 57.9766C5.04948 57.9766 4.10938 57.7344 3.29688 57.25C2.48958 56.7656 1.85938 56.0781 1.40625 55.1875C0.953125 54.2969 0.726562 53.2396 0.726562 52.0156C0.726562 50.7656 0.958333 49.6927 1.42188 48.7969C1.89062 47.901 2.52604 47.2161 3.32812 46.7422C4.13021 46.263 5.03906 46.0234 6.05469 46.0234C6.70052 46.0234 7.29948 46.1172 7.85156 46.3047C8.40885 46.4922 8.90365 46.7604 9.33594 47.1094C9.76823 47.4531 10.1224 47.862 10.3984 48.3359C10.6797 48.8099 10.8672 49.3307 10.9609 49.8984L8.8125 49.8984C8.71875 49.5911 8.58854 49.3151 8.42188 49.0703C8.26042 48.8255 8.0625 48.6172 7.82812 48.4453C7.59896 48.2682 7.33854 48.1354 7.04688 48.0469C6.75521 47.9583 6.43229 47.9141 6.07812 47.9141C5.45833 47.9141 4.90365 48.0729 4.41406 48.3906C3.92448 48.7031 3.53906 49.1641 3.25781 49.7734C2.98177 50.3776 2.84375 51.1172 2.84375 51.9922C2.84375 52.8724 2.98177 53.6172 3.25781 54.2266C3.53385 54.8359 3.91927 55.2995 4.41406 55.6172C4.90885 55.9297 5.48177 56.0859 6.13281 56.0859C6.72135 56.0859 7.23177 55.974 7.66406 55.75C8.09635 55.5208 8.42969 55.1979 8.66406 54.7812C8.89844 54.3646 9.01562 53.8724 9.01562 53.3047L9.5 53.3828L6.33594 53.3828L6.33594 51.7344L11.0625 51.7344L11.0625 53.125C11.0625 54.125 10.8516 54.987 10.4297 55.7109C10.0078 56.4349 9.42188 56.9948 8.67188 57.3906C7.92708 57.7812 7.07552 57.9766 6.11719 57.9766ZM12.5 57.8203L12.5 46.1797L16.8672 46.1797C17.763 46.1797 18.513 46.3359 19.1172 46.6484C19.7266 46.9609 20.1875 47.3984 20.5 47.9609C20.8125 48.5182 20.9688 49.1667 20.9688 49.9062C20.9688 50.651 20.8099 51.2969 20.4922 51.8438C20.1797 52.3906 19.7161 52.8125 19.1016 53.1094C18.487 53.4062 17.7318 53.5547 16.8359 53.5547L13.7344 53.5547L13.7344 51.8125L16.5469 51.8125C17.0729 51.8125 17.5026 51.7396 17.8359 51.5938C18.1745 51.4479 18.4219 51.2344 18.5781 50.9531C18.7396 50.6667 18.8203 50.3177 18.8203 49.9062C18.8203 49.4948 18.7396 49.1432 18.5781 48.8516C18.4167 48.5547 18.1693 48.3307 17.8359 48.1797C17.5026 48.0234 17.0703 47.9453 16.5391 47.9453L14.6094 47.9453L14.6094 57.8203L12.5 57.8203ZM19.0391 57.8203L16.2188 52.5391L18.5156 52.5391L21.3984 57.8203L19.0391 57.8203ZM22.3125 57.8203L22.3125 46.1797L29.8906 46.1797L29.8906 47.9453L24.4219 47.9453L24.4219 51.0703L29.4844 51.0703L29.4844 52.8125L24.4219 52.8125L24.4219 56.0547L29.9219 56.0547L29.9219 57.8203L22.3125 57.8203ZM31.4375 57.8203L31.4375 46.1797L39.0156 46.1797L39.0156 47.9453L33.5469 47.9453L33.5469 51.0703L38.6094 51.0703L38.6094 52.8125L33.5469 52.8125L33.5469 56.0547L39.0469 56.0547L39.0469 57.8203L31.4375 57.8203ZM50.1406 46.1797L50.1406 57.8203L48.25 57.8203L42.7734 49.8906L42.6719 49.8906L42.6719 57.8203L40.5625 57.8203L40.5625 46.1797L42.4531 46.1797L47.9297 54.1094L48.0312 54.1094L48.0312 46.1797L50.1406 46.1797ZM54.2969 57.8203L51.0156 46.1797L53.2812 46.1797L55.3828 54.7344L55.4844 54.7344L57.7266 46.1797L59.7969 46.1797L62.0234 54.7422L62.1406 54.7422L64.2266 46.1797L66.5078 46.1797L63.2188 57.8203L61.1328 57.8203L58.8047 49.6641L58.7109 49.6641L56.3906 57.8203L54.2969 57.8203ZM72.1562 57.9766C71.1406 57.9766 70.2266 57.7396 69.4141 57.2656C68.6068 56.7917 67.9688 56.1094 67.5 55.2188C67.0365 54.3281 66.8047 53.2578 66.8047 52.0078C66.8047 50.7526 67.0365 49.6797 67.5 48.7891C67.9688 47.8932 68.6068 47.2083 69.4141 46.7344C70.2266 46.2604 71.1406 46.0234 72.1562 46.0234C73.1771 46.0234 74.0885 46.2604 74.8906 46.7344C75.6927 47.2083 76.3281 47.8932 76.7969 48.7891C77.2656 49.6797 77.5 50.7526 77.5 52.0078C77.5 53.2578 77.2656 54.3281 76.7969 55.2188C76.3281 56.1094 75.6927 56.7917 74.8906 57.2656C74.0885 57.7396 73.1771 57.9766 72.1562 57.9766ZM72.1562 56.0859C72.7865 56.0859 73.3438 55.9297 73.8281 55.6172C74.3125 55.3047 74.6927 54.8464 74.9688 54.2422C75.2448 53.6328 75.3828 52.888 75.3828 52.0078C75.3828 51.1224 75.2448 50.375 74.9688 49.7656C74.6927 49.1562 74.3125 48.6953 73.8281 48.3828C73.3438 48.0703 72.7865 47.9141 72.1562 47.9141C71.526 47.9141 70.9661 48.0703 70.4766 48.3828C69.9922 48.6953 69.612 49.1562 69.3359 49.7656C69.0599 50.375 68.9219 51.1224 68.9219 52.0078C68.9219 52.888 69.0599 53.6328 69.3359 54.2422C69.612 54.8464 69.9922 55.3047 70.4766 55.6172C70.9661 55.9297 71.526 56.0859 72.1562 56.0859ZM83.9531 57.9766C82.9375 57.9766 82.0234 57.7396 81.2109 57.2656C80.4036 56.7917 79.7656 56.1094 79.2969 55.2188C78.8333 54.3281 78.6016 53.2578 78.6016 52.0078C78.6016 50.7526 78.8333 49.6797 79.2969 48.7891C79.7656 47.8932 80.4036 47.2083 81.2109 46.7344C82.0234 46.2604 82.9375 46.0234 83.9531 46.0234C84.974 46.0234 85.8854 46.2604 86.6875 46.7344C87.4896 47.2083 88.125 47.8932 88.5938 48.7891C89.0625 49.6797 89.2969 50.7526 89.2969 52.0078C89.2969 53.2578 89.0625 54.3281 88.5938 55.2188C88.125 56.1094 87.4896 56.7917 86.6875 57.2656C85.8854 57.7396 84.974 57.9766 83.9531 57.9766ZM83.9531 56.0859C84.5833 56.0859 85.1406 55.9297 85.625 55.6172C86.1094 55.3047 86.4896 54.8464 86.7656 54.2422C87.0417 53.6328 87.1797 52.888 87.1797 52.0078C87.1797 51.1224 87.0417 50.375 86.7656 49.7656C86.4896 49.1562 86.1094 48.6953 85.625 48.3828C85.1406 48.0703 84.5833 47.9141 83.9531 47.9141C83.3229 47.9141 82.763 48.0703 82.2734 48.3828C81.7891 48.6953 81.4089 49.1562 81.1328 49.7656C80.8568 50.375 80.7188 51.1224 80.7188 52.0078C80.7188 52.888 80.8568 53.6328 81.1328 54.2422C81.4089 54.8464 81.7891 55.3047 82.2734 55.6172C82.763 55.9297 83.3229 56.0859 83.9531 56.0859ZM94.6406 57.8203L91.6875 57.8203L91.6875 55.9922L94.5312 55.9922C95.3385 55.9922 96.013 55.8464 96.5547 55.5547C97.1016 55.2578 97.5104 54.8125 97.7812 54.2188C98.0573 53.625 98.1953 52.8828 98.1953 51.9922C98.1953 51.1016 98.0599 50.362 97.7891 49.7734C97.5182 49.1849 97.1146 48.7448 96.5781 48.4531C96.0417 48.1562 95.3776 48.0078 94.5859 48.0078L91.625 48.0078L91.625 46.1797L94.7109 46.1797C95.8672 46.1797 96.8594 46.4115 97.6875 46.875C98.5208 47.3385 99.1615 48.0052 99.6094 48.875C100.057 49.7448 100.281 50.7839 100.281 51.9922C100.281 53.2005 100.057 54.2422 99.6094 55.1172C99.1615 55.987 98.5156 56.6562 97.6719 57.125C96.8333 57.5885 95.8229 57.8203 94.6406 57.8203ZM92.7969 46.1797L92.7969 57.8203L90.6875 57.8203L90.6875 46.1797L92.7969 46.1797Z" fill="rgb(197.63,214.731,206.684)" fill-rule="nonzero" />
	<g id="noun-forest-5542201 1" clip-path="url(#clipPath_0)" customFrame="url(#clipPath_0)">
		<rect id="noun-forest-5542201 1" width="39.000000" height="42.000000" x="31.000000" y="0.000000" fill="rgb(255,255,255)" fill-opacity="0" />
		<path id="Vector" d="M31.3198 41.6336L69.6792 41.6336C69.6792 41.6336 67.0373 40.2121 61.9717 39.1331L61.9717 35.2735L65.5784 35.2735L65.3495 34.1815L62.8954 33.3415L62.8954 32.6543L62.9705 32.6572L65.0469 32.7296L64.3182 29.2407L61.6604 27.5151L64.0365 27.8938L63.38 24.7525L61.2357 24.0182L61.2357 23.331L61.3094 23.3339L63.0976 23.3962L62.8585 22.2564L61.9579 21.6705L62.7632 21.7994L62.3761 19.9413L61.4228 19.4757L61.3101 18.8363L62.1667 18.934L61.3101 14.8398L59.9552 21.3288L60.7323 21.1984L59.8729 21.7205L59.7978 22.0797L60.8002 21.6713L59.6512 22.7828L58.7679 27.0147L60.9143 26.2565L60.9143 27.2964L58.4422 28.5723L57.8499 31.4066L60.2506 31.0003L60.2506 31.2719L57.5827 32.6832L57.2122 34.4552L53.3079 33.117L53.3079 31.9019L53.4408 31.9077L57.1169 32.0351L55.827 25.8604L51.1232 22.8024L55.3287 23.4744L54.1666 17.9144L50.3699 16.6132L50.3699 15.3981L50.4999 15.4024L53.6639 15.5125L53.2422 13.4943L51.6468 12.4573L53.0732 12.6847L52.3863 9.39641L50.6999 8.57162L50.4999 7.43907L52.0144 7.61286L50.4999 0.366413L48.0999 11.8505L49.4765 11.6202L47.9548 12.5479L47.8219 13.1829L49.5971 12.4573L47.5633 14.4248L45.9983 21.9153L49.7993 20.5742L49.7993 22.4157L45.4227 24.6728L44.374 29.6897L48.6243 28.9742L48.6243 29.4521L43.9009 31.9526L43.4365 34.1757L40.9976 33.3415L40.9976 32.6543L41.0727 32.6572L43.1491 32.7296L42.4204 29.2407L39.7626 27.5151L42.1387 27.8938L41.4822 24.7525L39.3379 24.0182L39.3379 23.331L39.4116 23.3339L41.1998 23.3962L40.9608 22.2564L40.0602 21.6705L40.8654 21.7994L40.4776 19.9413L39.5243 19.4757L39.4116 18.8363L40.2674 18.934L39.4116 14.8398L38.0574 21.3288L38.8338 21.1984L37.9744 21.7205L37.8993 22.0797L38.9017 21.6713L37.7534 22.7828L36.8694 27.0147L39.0165 26.2565L39.0165 27.2964L36.5444 28.5723L35.9522 31.4066L38.3528 31.0003L38.3528 31.2719L35.6849 32.6832L35.144 35.2742L38.8273 35.2742L38.8273 39.1483C33.9884 40.2237 31.3198 41.6336 31.3198 41.6336ZM58.0572 36.5378L57.7922 35.2735L60.8017 35.2735L60.8017 38.8985C58.2118 38.4133 55.0643 38.0426 51.3962 37.9651L51.3962 36.5378L58.0572 36.5378ZM39.998 35.2735L43.2076 35.2735L42.944 36.5378L49.4122 36.5378L49.4122 37.9593C45.7664 38.0071 42.6103 38.3923 39.9988 38.9043L39.9988 35.2735L39.998 35.2735Z" fill="rgb(197.63,214.731,206.684)" fill-rule="nonzero" />
	</g>
</svg>
