<svg viewBox="0 0 36 36" xmlns="http://www.w3.org/2000/svg" xmlns:xlink="http://www.w3.org/1999/xlink" width="36.000000" height="36.000000" fill="none">
	<rect id="Frame" width="36.000000" height="36.000000" x="0.000000" y="0.000000" fill="rgb(255,255,255)" fill-opacity="0" />
	<path id="Vector" d="M0 0L36 0L36 36L0 36L0 0Z" fill-rule="nonzero" />
	<path id="Vector" d="M28.5 15L18 4.5L4.5 18L7.5 18L7.5 28.5C7.5 29.2957 7.81607 30.0587 8.37868 30.6213C8.94129 31.1839 9.70435 31.5 10.5 31.5L19.5 31.5" fill-rule="nonzero" stroke="rgb(216,197,164)" stroke-linecap="round" stroke-linejoin="round" stroke-width="1.800000" />
	<path id="Vector" d="M13.5 31.5L13.5 22.5C13.5 21.7043 13.8161 20.9413 14.3787 20.3787C14.9413 19.8161 15.7044 19.5 16.5 19.5L19.5 19.5C20.0805 19.5 20.622 19.665 21.081 19.95" fill-rule="nonzero" stroke="rgb(216,197,164)" stroke-linecap="round" stroke-linejoin="round" stroke-width="1.800000" />
	<path id="Vector" d="M31.5 22.5L27.75 22.5C27.1533 22.5 26.581 22.7371 26.159 23.159C25.7371 23.581 25.5 24.1533 25.5 24.75C25.5 25.3467 25.7371 25.919 26.159 26.341C26.581 26.7629 27.1533 27 27.75 27L29.25 27C29.8467 27 30.419 27.2371 30.841 27.659C31.2629 28.081 31.5 28.6533 31.5 29.25C31.5 29.8467 31.2629 30.419 30.841 30.841C30.419 31.2629 29.8467 31.5 29.25 31.5L25.5 31.5" fill-rule="nonzero" stroke="rgb(216,197,164)" stroke-linecap="round" stroke-linejoin="round" stroke-width="1.800000" />
	<path id="Vector" d="M28.5 31.5L28.5 33M28.5 21L28.5 22.5" stroke="rgb(216,197,164)" stroke-linecap="round" stroke-linejoin="round" stroke-width="1.800000" />
</svg>
