<?xml version="1.0" encoding="utf-8"?><svg viewBox="0 0 502.66 502.66" xmlns="http://www.w3.org/2000/svg" xmlns:xlink="http://www.w3.org/1999/xlink"><style>:root>svg{display:none}:root>svg:target{display:block}</style><svg viewBox="0 0 60 60" id="about-1" xmlns="http://www.w3.org/2000/svg"><path d="M0 0h60v60H0z"/><path d="M0 0h60v60H0V0Z"/><path d="M32.5 52.5H15a5 5 0 0 1-5-5v-30a5 5 0 0 1 5-5h30a5 5 0 0 1 5 5V25M40 7.5v10m-20-10v10m-10 10h31.25m11.25 10h-6.25a3.75 3.75 0 1 0 0 7.5h2.5a3.75 3.75 0 1 1 0 7.5H42.5m5 0V55m0-20v2.5"/></svg><svg viewBox="0 0 20 20" id="arrow-benefit" xmlns="http://www.w3.org/2000/svg"><path d="M0 0h20v20H0z"/><path d="M0 0h20v20H0V0ZM4.167 10h11.667m-5.001 5 5-5m-5-5 5 5"/></svg><svg viewBox="0 0 20 20" id="arrow-btn--standard" xmlns="http://www.w3.org/2000/svg"><path d="M0 0h20v20H0z"/><path d="M0 0h20v20H0V0ZM4.167 10h11.667m-5.001 5 5-5m-5-5 5 5"/></svg><svg viewBox="0 0 20 20" id="arrow-btn--white" xmlns="http://www.w3.org/2000/svg"><path d="M0 0h20v20H0z"/><path d="M0 0h20v20H0V0ZM4.167 10h11.667m-5.001 5 5-5m-5-5 5 5"/></svg><svg viewBox="0 0 30 30" id="arrow-swiper" xmlns="http://www.w3.org/2000/svg"><path d="M30 0H0v30h30z"/><path d="M30 0H0v30h30V0ZM23.75 15H6.25m7.5 7.5L6.25 15m7.5-7.5L6.25 15"/></svg><svg viewBox="0 0 60 60" id="benefit-1" xmlns="http://www.w3.org/2000/svg"><g clip-path="url(#afa)" stroke-width="2.2" stroke-linecap="round" stroke-linejoin="round"><path d="M22.5 12.5h-5a5 5 0 0 0-5 5v30a5 5 0 0 0 5 5h25a5 5 0 0 0 5-5v-30a5 5 0 0 0-5-5h-5"/><path d="M22.5 12.5a5 5 0 0 1 5-5h5a5 5 0 1 1 0 10h-5a5 5 0 0 1-5-5Zm0 30V30M30 42.5V40m7.5 2.5V35"/></g><defs><clipPath id="afa"><path d="M0 0h60v60H0z"/></clipPath></defs></svg><svg viewBox="0 0 60 60" id="benefit-2" xmlns="http://www.w3.org/2000/svg"><g clip-path="url(#aga)"><path d="M17.5 25H25v-7.5l-8.75-8.75a15 15 0 0 1 20 20l15 15a5.303 5.303 0 1 1-7.5 7.5l-15-15a15 15 0 0 1-20-20L17.5 25Z"/></g><defs><clipPath id="aga"><path d="M0 0h60v60H0z"/></clipPath></defs></svg><svg viewBox="0 0 60 60" id="benefit-3" xmlns="http://www.w3.org/2000/svg"><g clip-path="url(#aha)" stroke-width="2.2" stroke-linecap="round" stroke-linejoin="round"><path d="M20 17.5a10 10 0 1 0 20 0 10 10 0 0 0-20 0Zm-5 35v-5a10 10 0 0 1 10-10h3.75M37.5 45a7.5 7.5 0 1 0 15 0 7.5 7.5 0 0 0-15 0Zm13 5.5L55 55"/></g><defs><clipPath id="aha"><path d="M0 0h60v60H0z"/></clipPath></defs></svg><svg viewBox="0 0 60 60" id="benefit-4" xmlns="http://www.w3.org/2000/svg"><g clip-path="url(#aia)" stroke-width="2.2" stroke-linecap="round" stroke-linejoin="round"><path d="M32.5 52.5H15a5 5 0 0 1-5-5v-30a5 5 0 0 1 5-5h30a5 5 0 0 1 5 5V25M40 7.5v10m-20-10v10m-10 10h31.25m11.25 10h-6.25a3.75 3.75 0 1 0 0 7.5h2.5a3.75 3.75 0 1 1 0 7.5H42.5m5 0V55m0-20v2.5"/></g><defs><clipPath id="aia"><path d="M0 0h60v60H0z"/></clipPath></defs></svg><svg viewBox="0 0 26 26" id="contact-1" xmlns="http://www.w3.org/2000/svg"><g clip-path="url(#aja)" stroke-width="1.5" stroke-linecap="round" stroke-linejoin="round"><path d="M9.75 11.917a3.25 3.25 0 1 0 6.5 0 3.25 3.25 0 0 0-6.5 0Z"/><path d="m19.131 18.045-4.597 4.597a2.167 2.167 0 0 1-3.062 0l-4.598-4.597a8.667 8.667 0 1 1 12.257 0Z"/></g><defs><clipPath id="aja"><path d="M0 0h26v26H0z"/></clipPath></defs></svg><svg viewBox="0 0 26 26" id="contact-2" xmlns="http://www.w3.org/2000/svg"><g clip-path="url(#aka)" stroke-width="1.5" stroke-linecap="round" stroke-linejoin="round"><path d="M5.417 4.333H9.75l2.167 5.417-2.709 1.625a11.916 11.916 0 0 0 5.417 5.417l1.625-2.709 5.417 2.167v4.333A2.167 2.167 0 0 1 19.5 22.75 17.333 17.333 0 0 1 3.25 6.5a2.167 2.167 0 0 1 2.167-2.167Zm10.833 3.25a2.167 2.167 0 0 1 2.167 2.167m-2.167-6.5a6.5 6.5 0 0 1 6.5 6.5"/></g><defs><clipPath id="aka"><path d="M0 0h26v26H0z"/></clipPath></defs></svg><svg viewBox="0 0 26 26" id="contact-3" xmlns="http://www.w3.org/2000/svg"><g clip-path="url(#ala)" stroke-width="1.5" stroke-linecap="round" stroke-linejoin="round"><path d="M3.25 7.583a2.167 2.167 0 0 1 2.167-2.166h15.166a2.167 2.167 0 0 1 2.167 2.166v10.834a2.167 2.167 0 0 1-2.167 2.166H5.417a2.166 2.166 0 0 1-2.167-2.166V7.583Z"/><path d="m3.25 7.583 9.75 6.5 9.75-6.5"/></g><defs><clipPath id="ala"><path d="M0 0h26v26H0z"/></clipPath></defs></svg><svg viewBox="0 0 26 26" id="contact-4" xmlns="http://www.w3.org/2000/svg"><g clip-path="url(#ama)" stroke-width="1.5" stroke-linecap="round" stroke-linejoin="round"><path d="M3.25 13a9.75 9.75 0 1 0 19.501 0A9.75 9.75 0 0 0 3.25 13Zm9.753 0H9.21M13 7.583V13"/></g><defs><clipPath id="ama"><path d="M0 0h26v26H0z"/></clipPath></defs></svg><svg viewBox="0 0 6 6" id="dot" xmlns="http://www.w3.org/2000/svg"><circle cx="3" cy="3" r="3"/></svg><svg viewBox="0 0 4 4" id="ellipse-blog" xmlns="http://www.w3.org/2000/svg"><circle cx="2" cy="2" r="2"/></svg><svg viewBox="0 0 30 30" id="facebook" xmlns="http://www.w3.org/2000/svg"><path d="M0 0h30v30H0z"/><path d="M0 0h30v30H0V0Z"/><path d="M8.75 17.5h3.75v8.75h5V17.5h3.75l1.25-5h-5V10a1.25 1.25 0 0 1 1.25-1.25h3.75v-5h-3.75A6.25 6.25 0 0 0 12.5 10v2.5H8.75v5Z"/></svg><svg viewBox="0 0 30 30" id="faq-icon" xmlns="http://www.w3.org/2000/svg"><g clip-path="url(#ara)" stroke-width="1.5" stroke-linecap="round" stroke-linejoin="round"><path d="M15 6.25v17.5M6.25 15h17.5"/></g><defs><clipPath id="ara"><path d="M0 0h30v30H0z"/></clipPath></defs></svg><svg viewBox="0 0 30 30" id="faq-icon-close" xmlns="http://www.w3.org/2000/svg"><path d="M0 0h30v30H0z"/><path d="M0 0h30v30H0V0ZM6.25 15h17.5"/></svg><svg viewBox="0 0 502.664 502.664" xml:space="preserve" id="icon" xmlns="http://www.w3.org/2000/svg"><path d="M153.821 358.226 0 274.337v-46.463l153.821-83.414v54.574L46.636 250.523l107.185 53.431v54.272zm26.273 29.358L282.103 115.08h32.227L212.084 387.584h-31.99zm168.749-29.358v-54.272l107.164-52.999-107.164-52.59v-53.927l153.821 83.522v46.183l-153.821 84.083z"/></svg><svg viewBox="0 0 18 20" id="list-icon" xmlns="http://www.w3.org/2000/svg"><path d="M9 5.75v10.5M3.75 11h10.5"/></svg><svg viewBox="0 0 12 2" id="list-icon-min" xmlns="http://www.w3.org/2000/svg"><path d="M.75.75h10.5"/></svg><svg viewBox="0 0 101 60" id="logo" xmlns="http://www.w3.org/2000/svg"><defs><clipPath id="ava"><path d="M31 0h39v42H31z"/></clipPath></defs><path d="M0 0h101v60H0z"/><path d="M6.117 57.977c-1.068 0-2.008-.243-2.82-.727-.807-.484-1.438-1.172-1.89-2.063-.454-.89-.68-1.947-.68-3.171 0-1.25.231-2.323.695-3.22.469-.895 1.104-1.58 1.906-2.054.802-.479 1.711-.719 2.727-.719.646 0 1.244.094 1.797.282a4.752 4.752 0 0 1 1.484.804c.432.344.786.753 1.062 1.227.282.474.47.995.563 1.562H8.812a3.034 3.034 0 0 0-.39-.828 2.423 2.423 0 0 0-.594-.625 2.403 2.403 0 0 0-.781-.398 3.324 3.324 0 0 0-.969-.133 2.99 2.99 0 0 0-1.664.477c-.49.312-.875.773-1.156 1.382-.276.605-.414 1.344-.414 2.22 0 .88.138 1.624.414 2.234.276.609.661 1.073 1.156 1.39.495.313 1.068.469 1.719.469.588 0 1.099-.112 1.531-.336.432-.23.766-.552 1-.969.234-.416.352-.909.352-1.476l.484.078H6.336v-1.649h4.726v1.391c0 1-.21 1.862-.632 2.586a4.334 4.334 0 0 1-1.758 1.68c-.745.39-1.596.586-2.555.586Zm6.383-.157V46.18h4.367c.896 0 1.646.156 2.25.468.61.313 1.07.75 1.383 1.313.313.557.469 1.206.469 1.945 0 .745-.16 1.39-.477 1.938-.312.547-.776.968-1.39 1.265-.615.297-1.37.446-2.266.446h-3.102v-1.742h2.813c.526 0 .956-.073 1.289-.22.338-.145.586-.359.742-.64.162-.286.242-.635.242-1.047 0-.411-.08-.763-.242-1.054a1.535 1.535 0 0 0-.742-.672c-.333-.157-.766-.235-1.297-.235h-1.93v9.875H12.5Zm6.54 0-2.821-5.28h2.297l2.882 5.28H19.04Zm3.273 0V46.18h7.578v1.765h-5.47v3.125h5.063v1.742h-5.062v3.243h5.5v1.765h-7.61Zm9.125 0V46.18h7.578v1.765h-5.47v3.125h5.063v1.742h-5.062v3.243h5.5v1.765h-7.61ZM50.14 46.18v11.64h-1.89l-5.477-7.93h-.101v7.93h-2.11V46.18h1.891l5.477 7.93h.101v-7.93h2.11Zm4.156 11.64-3.281-11.64h2.265l2.102 8.554h.101l2.243-8.554h2.07l2.226 8.562h.118l2.086-8.562h2.28L63.22 57.82h-2.086l-2.328-8.156h-.094l-2.32 8.156h-2.094Zm17.86.157c-1.016 0-1.93-.237-2.743-.711-.807-.474-1.445-1.157-1.914-2.047-.463-.89-.695-1.961-.695-3.211 0-1.255.231-2.328.695-3.219.469-.896 1.107-1.58 1.914-2.055.813-.474 1.727-.71 2.742-.71 1.021 0 1.932.236 2.735.71.802.474 1.437 1.16 1.906 2.055.469.89.703 1.964.703 3.219 0 1.25-.234 2.32-.703 3.21-.469.891-1.104 1.574-1.906 2.048-.803.474-1.714.71-2.735.71Zm0-1.891c.63 0 1.187-.156 1.671-.469.484-.312.865-.77 1.14-1.375.277-.61.415-1.354.415-2.234 0-.886-.138-1.633-.414-2.242-.276-.61-.656-1.07-1.14-1.383-.485-.313-1.042-.469-1.673-.469-.63 0-1.19.156-1.68.469-.484.312-.864.773-1.14 1.383-.276.609-.414 1.356-.414 2.242 0 .88.138 1.625.414 2.234.276.604.656 1.063 1.14 1.375.49.313 1.05.469 1.68.469Zm11.796 1.89c-1.016 0-1.93-.236-2.742-.71-.807-.474-1.445-1.157-1.914-2.047-.464-.89-.695-1.961-.695-3.211 0-1.255.231-2.328.695-3.219.469-.896 1.107-1.58 1.914-2.055.812-.474 1.727-.71 2.742-.71 1.021 0 1.932.236 2.734.71.803.474 1.438 1.16 1.907 2.055.469.89.703 1.964.703 3.219 0 1.25-.234 2.32-.703 3.21-.469.891-1.104 1.574-1.906 2.048-.803.474-1.714.71-2.735.71Zm0-1.89c.63 0 1.188-.156 1.672-.469.484-.312.865-.77 1.14-1.375.277-.61.415-1.354.415-2.234 0-.886-.138-1.633-.414-2.242-.276-.61-.657-1.07-1.141-1.383-.484-.313-1.042-.469-1.672-.469-.63 0-1.19.156-1.68.469-.484.312-.864.773-1.14 1.383-.276.609-.414 1.356-.414 2.242 0 .88.138 1.625.414 2.234.276.604.656 1.063 1.14 1.375.49.313 1.05.469 1.68.469ZM94.64 57.82h-2.954v-1.828h2.844c.807 0 1.482-.146 2.024-.437a2.788 2.788 0 0 0 1.226-1.336c.276-.594.414-1.336.414-2.227 0-.89-.135-1.63-.406-2.219a2.772 2.772 0 0 0-1.21-1.32c-.537-.297-1.201-.445-1.993-.445h-2.961V46.18h3.086c1.156 0 2.148.231 2.977.695a4.69 4.69 0 0 1 1.921 2c.448.87.672 1.909.672 3.117 0 1.209-.224 2.25-.672 3.125a4.713 4.713 0 0 1-1.937 2.008c-.839.464-1.85.695-3.031.695Zm-1.844-11.64v11.64h-2.11V46.18h2.11Z"/><g clip-path="url(#ava)"><path d="M31 0h39v42H31z"/><path d="M31.32 41.634h38.36s-2.643-1.422-7.708-2.5v-3.86h3.606l-.228-1.093-2.455-.84v-.687l.075.003 2.077.073-.729-3.49-2.658-1.725 2.377.379-.657-3.141-2.144-.735v-.687l.073.003 1.789.062-.24-1.14-.9-.585.805.128-.387-1.858-.953-.465-.113-.64.857.098-.857-4.094-1.355 6.489.777-.13-.86.521-.074.36 1.002-.409-1.149 1.112-.883 4.232 2.146-.759v1.04l-2.472 1.276-.592 2.835 2.4-.407v.272l-2.667 1.411-.37 1.772-3.905-1.338v-1.215l.133.006 3.676.127-1.29-6.175-4.704-3.058 4.206.672-1.162-5.56-3.797-1.3v-1.216l.13.004 3.164.11-.422-2.018-1.595-1.037 1.426.228-.687-3.289-1.686-.824-.2-1.133 1.514.174L50.5.366l-2.4 11.485 1.377-.23-1.522.927-.133.635 1.775-.726-2.034 1.968-1.565 7.49 3.801-1.34v1.84l-4.376 2.258-1.049 5.017 4.25-.716v.478l-4.723 2.5-.465 2.224-2.438-.834v-.688l.075.003 2.076.073-.729-3.49-2.657-1.725 2.376.379-.657-3.141-2.144-.735v-.687l.074.003 1.788.062-.24-1.14-.9-.585.805.128-.387-1.858-.954-.465-.112-.64.855.098-.855-4.094-1.355 6.489.777-.13-.86.521-.075.36 1.003-.409-1.149 1.112-.884 4.232 2.148-.759v1.04l-2.473 1.276-.592 2.835 2.4-.407v.272l-2.667 1.411-.541 2.591h3.683v3.874c-4.839 1.076-7.507 2.486-7.507 2.486Zm26.737-5.096-.265-1.264h3.01v3.624c-2.59-.485-5.738-.855-9.406-.933v-1.427h6.661Zm-18.059-1.264h3.21l-.264 1.264h6.468v1.421c-3.646.048-6.802.433-9.413.945v-3.63h-.001Z"/></g></svg><svg viewBox="0 0 36 36" id="service-benefit-1" xmlns="http://www.w3.org/2000/svg"><path d="M0 0h36v36H0z"/><path d="M0 0h36v36H0V0Z"/><path d="M28.5 15 18 4.5 4.5 18h3v10.5a3 3 0 0 0 3 3h9"/><path d="M13.5 31.5v-9a3 3 0 0 1 3-3h3c.58 0 1.122.165 1.581.45M31.5 22.5h-3.75a2.25 2.25 0 0 0 0 4.5h1.5a2.25 2.25 0 0 1 0 4.5H25.5m3 0V33m0-12v1.5"/></svg><svg viewBox="0 0 30 26" id="swiper-icon-top" xmlns="http://www.w3.org/2000/svg"><path d="M0 26 7.064 0h6.055L9.083 26H0Zm16.88 0 7.065-26H30l-4.037 26h-9.082Z"/></svg><svg viewBox="0 0 20 20" id="tabs-arrow-slider" xmlns="http://www.w3.org/2000/svg"><g clip-path="url(#aya)" stroke-width="1.5" stroke-linecap="round" stroke-linejoin="round"><path d="M4.167 10h11.667m-5.001 5 5-5m-5-5 5 5"/></g><defs><clipPath id="aya"><path d="M0 0h20v20H0z"/></clipPath></defs></svg><svg viewBox="0 0 36 36" id="telegram" xmlns="http://www.w3.org/2000/svg"><g clip-path="url(#aza)"><path d="m22.5 15-6 6 9 9 6-24-27 10.5 6 3 3 9 4.5-6"/></g><defs><clipPath id="aza"><path d="M0 0h36v36H0z"/></clipPath></defs></svg><svg viewBox="0 0 36 36" id="whatsapp" xmlns="http://www.w3.org/2000/svg"><g clip-path="url(#baa)" stroke-width="2" stroke-linecap="round" stroke-linejoin="round"><path d="m4.5 31.5 2.475-5.7a13.5 13.5 0 1 1 5.1 4.35L4.5 31.5Z"/><path d="M13.5 15a.75.75 0 1 0 1.5 0v-1.5a.75.75 0 1 0-1.5 0V15Zm0 0a7.5 7.5 0 0 0 7.5 7.5m0 0h1.5a.75.75 0 1 0 0-1.5H21a.75.75 0 1 0 0 1.5Z"/></g><defs><clipPath id="baa"><path d="M0 0h36v36H0z"/></clipPath></defs></svg><svg viewBox="0 0 30 30" id="x" xmlns="http://www.w3.org/2000/svg"><path d="M0 0h30v30H0z"/><path d="M0 0h30v30H0V0Z"/><path d="M19.666 25H25L10.334 5H5l14.666 20ZM5 25l8.46-8.46m3.075-3.075L25 5"/></svg><svg viewBox="0 0 26 26" id="zoom" xmlns="http://www.w3.org/2000/svg"><path d="M0 0h26v26H0z"/><path d="M0 0h26v26H0V0Z"/><path d="M3.827 13.735A7.583 7.583 0 1 0 17.84 7.931a7.583 7.583 0 0 0-14.013 5.804ZM22.75 22.75l-6.5-6.5"/></svg></svg>